<svg width="180" height="37" viewBox="0 0 180 37" fill="none" xmlns="http://www.w3.org/2000/svg">
<path d="M0.378906 18.1099C0.378906 8.1081 8.40744 0 18.3111 0C28.2148 0 36.2434 8.1081 36.2434 18.1099V36.2199H18.3111C8.40744 36.2199 0.378906 28.1118 0.378906 18.1099Z" fill="#77D4F2"/>
<path fill-rule="evenodd" clip-rule="evenodd" d="M7.68222 18.4521C7.55254 18.2423 7.55254 17.9762 7.68222 17.7665L13.6806 8.06473C13.7975 7.87562 14.0026 7.76074 14.2232 7.76074H19.1124C19.6149 7.76074 19.9213 8.31953 19.655 8.75032L14.0805 17.7665C13.9508 17.9762 13.9508 18.2423 14.0805 18.4521L19.502 27.2208C19.835 27.7593 19.452 28.4578 18.8238 28.4578H15.9963C14.6726 28.4578 13.4424 27.7685 12.7408 26.6339L7.68222 18.4521ZM16.6481 18.4521C16.5187 18.2423 16.5187 17.9762 16.6481 17.7665L22.6306 8.06473C22.7473 7.87562 22.9518 7.76074 23.1718 7.76074H23.4427C25.9488 7.76074 27.4766 10.5547 26.1484 12.7086L23.0295 17.7665C22.9002 17.9762 22.9002 18.2423 23.0295 18.4521L28.4367 27.2208C28.7688 27.7593 28.3868 28.4578 27.7603 28.4578H24.9402C23.6201 28.4578 22.3931 27.7685 21.6934 26.6339L16.6481 18.4521Z" fill="#0E1527"/>
<path d="M54.7267 28.3727L49.3375 20.1791H48.8103V28.3727H43.9482V7.81486H52.5007C56.9527 7.81486 59.7352 10.4179 59.7352 13.997C59.7352 16.9845 57.7142 19.3509 54.4338 20.0016L60.1745 28.3727H54.7267ZM48.8103 12.1335V16.6887H52.3543C53.9945 16.6887 54.961 15.8309 54.961 14.4111C54.961 13.0209 53.9945 12.1335 52.3543 12.1335H48.8103Z" fill="#0E1527"/>
<path d="M65.2873 22.0426C65.7852 23.7878 67.1618 24.7344 69.0071 24.7344C70.7351 24.7344 71.5845 24.1428 72.1996 23.1075L75.8608 25.5626C74.6306 27.1895 72.6975 28.7572 68.8606 28.7572C63.7643 28.7572 60.5425 25.2372 60.5425 20.5932C60.5425 16.0971 64.1158 12.3997 68.5677 12.3997C73.6055 12.3997 76.593 16.4225 76.593 20.2679C76.593 21.0369 76.5344 21.6285 76.4758 22.0426H65.2873ZM65.2287 18.9664H72.0532C71.6431 17.1916 70.4715 16.0971 68.6849 16.0971C66.8982 16.0971 65.6388 17.0733 65.2287 18.9664Z" fill="#0E1527"/>
<path d="M85.8766 28.3727C81.8932 28.3727 79.8722 25.9767 79.8722 22.368V16.9845H77.2948V12.7842H78.5249C79.6086 12.7842 80.1651 12.1926 80.1651 11.039V8.64309H84.91V12.7842H88.4247V16.9845H84.7343V21.7764C84.7343 23.285 85.5251 24.0836 86.9017 24.0836H88.5126V28.3727H85.8766Z" fill="#0E1527"/>
<path d="M100.261 12.7842H105.123V28.3727H100.554V27.0712C99.47 28.1065 97.9469 28.7572 96.2482 28.7572C92.2941 28.7572 90.3024 26.0359 90.3024 22.5159V12.7842H95.1938V21.8652C95.1938 23.3146 96.131 24.3794 97.7126 24.3794C99.265 24.3794 100.261 23.3441 100.261 21.8652V12.7842Z" fill="#0E1527"/>
<path d="M112.524 14.1153C113.578 13.08 115.072 12.3997 116.8 12.3997V17.0141C114.222 17.0141 112.817 17.9902 112.817 20.0312V28.3727H107.925V12.7842H112.524V14.1153Z" fill="#0E1527"/>
<path d="M127.702 12.3997C131.334 12.3997 133.706 14.8844 133.706 18.4635V28.3727H128.815V19.4396C128.815 17.7536 127.672 16.7775 126.208 16.7775C124.743 16.7775 123.543 17.8423 123.543 19.2622V28.3727H118.651V12.7842H123.25V14.0266C124.304 13.0504 125.827 12.3997 127.702 12.3997Z" fill="#0E1527"/>
<path d="M140.427 22.0426C140.925 23.7878 142.301 24.7344 144.147 24.7344C145.875 24.7344 146.724 24.1428 147.339 23.1075L151 25.5626C149.77 27.1895 147.837 28.7572 144 28.7572C138.904 28.7572 135.682 25.2372 135.682 20.5932C135.682 16.0971 139.255 12.3997 143.707 12.3997C148.745 12.3997 151.733 16.4225 151.733 20.2679C151.733 21.0369 151.674 21.6285 151.615 22.0426H140.427ZM140.368 18.9664H147.193C146.783 17.1916 145.611 16.0971 143.825 16.0971C142.038 16.0971 140.778 17.0733 140.368 18.9664Z" fill="#0E1527"/>
<path d="M164.934 6.75H169.825V28.3727H165.315V27.0416C164.202 28.136 162.708 28.7572 160.863 28.7572C156.382 28.7572 153.16 25.2668 153.16 20.5932C153.16 15.9197 156.264 12.4293 160.746 12.4293C162.415 12.4293 163.821 12.9321 164.934 13.8787V6.75ZM161.566 24.409C163.704 24.409 165.139 22.8413 165.139 20.5932C165.139 18.3156 163.704 16.7479 161.566 16.7479C159.516 16.7479 158.022 18.3748 158.022 20.5932C158.022 22.8117 159.486 24.409 161.566 24.409Z" fill="#0E1527"/>
<path d="M179.797 27.9774C179.797 28.47 179.424 28.8467 178.936 28.8467C178.43 28.8467 178.057 28.47 178.057 27.9774C178.057 27.4752 178.43 27.0985 178.936 27.0985C179.424 27.0985 179.797 27.4752 179.797 27.9774Z" fill="#0E1527"/>
<path d="M179.826 23.9075C179.826 25.4529 178.688 26.6216 177.196 26.6216C175.713 26.6216 174.547 25.4722 174.547 23.9172C174.547 22.478 175.484 21.6281 176.22 21.4252L176.785 22.8547C176.306 22.9803 175.962 23.3376 175.962 23.8785C175.962 24.5063 176.431 24.9989 177.186 24.9989C177.942 24.9989 178.41 24.5063 178.41 23.8785C178.41 23.328 178.066 22.9513 177.607 22.8257L178.171 21.3962C178.879 21.5991 179.826 22.4587 179.826 23.9075Z" fill="#0E1527"/>
<path d="M179.826 18.2748C179.826 19.8975 178.688 21.0565 177.186 21.0565C175.675 21.0565 174.547 19.8975 174.547 18.2748C174.547 16.6425 175.675 15.4835 177.186 15.4835C178.688 15.4835 179.826 16.6425 179.826 18.2748ZM178.41 18.2652C178.41 17.5698 177.904 17.1062 177.177 17.1062C176.459 17.1062 175.962 17.5601 175.962 18.2652C175.962 18.9703 176.459 19.4339 177.186 19.4339C177.894 19.4339 178.41 18.9703 178.41 18.2652Z" fill="#0E1527"/>
<path d="M174.537 8.74223C174.537 7.45763 175.455 6.8105 176.555 6.8105L179.692 6.8105L179.692 8.42349L176.861 8.42349C176.383 8.42349 175.953 8.66496 175.953 9.18652C175.953 9.74673 176.383 9.98819 176.746 9.98819L179.692 9.98819L179.692 11.6012L176.861 11.6012C176.383 11.6012 175.953 11.8426 175.953 12.3642C175.953 12.9244 176.373 13.1659 176.746 13.1659L179.692 13.1659L179.692 14.7789L174.661 14.7789L174.661 13.2625L175.073 13.2625C174.757 12.9437 174.537 12.4608 174.537 11.8523C174.537 11.1183 174.767 10.645 175.197 10.3649C174.805 10.0655 174.537 9.52458 174.537 8.74223Z" fill="#0E1527"/>
</svg>
