<svg width="25" height="25" viewBox="0 0 25 25" fill="none" xmlns="http://www.w3.org/2000/svg">
<path fill-rule="evenodd" clip-rule="evenodd" d="M19.3789 21.2197H16.3789C15.2739 21.2197 14.3789 20.3247 14.3789 19.2197V14.2197C14.3789 13.1147 15.2739 12.2197 16.3789 12.2197H19.3789C20.4839 12.2197 21.3789 13.1147 21.3789 14.2197V19.2197C21.3789 20.3247 20.4839 21.2197 19.3789 21.2197Z" stroke="#6D6E6F" stroke-width="1.5" stroke-linecap="round" stroke-linejoin="round"/>
<path fill-rule="evenodd" clip-rule="evenodd" d="M19.3789 9.21973H16.3789C15.2739 9.21973 14.3789 8.32473 14.3789 7.21973V5.21973C14.3789 4.11473 15.2739 3.21973 16.3789 3.21973H19.3789C20.4839 3.21973 21.3789 4.11473 21.3789 5.21973V7.21973C21.3789 8.32473 20.4839 9.21973 19.3789 9.21973Z" stroke="#6D6E6F" stroke-width="1.5" stroke-linecap="round" stroke-linejoin="round"/>
<path fill-rule="evenodd" clip-rule="evenodd" d="M5.37891 3.21973H8.37891C9.48391 3.21973 10.3789 4.11473 10.3789 5.21973V10.2197C10.3789 11.3247 9.48391 12.2197 8.37891 12.2197H5.37891C4.27391 12.2197 3.37891 11.3247 3.37891 10.2197V5.21973C3.37891 4.11473 4.27391 3.21973 5.37891 3.21973Z" stroke="#6D6E6F" stroke-width="1.5" stroke-linecap="round" stroke-linejoin="round"/>
<path fill-rule="evenodd" clip-rule="evenodd" d="M5.37891 15.2197H8.37891C9.48391 15.2197 10.3789 16.1147 10.3789 17.2197V19.2197C10.3789 20.3247 9.48391 21.2197 8.37891 21.2197H5.37891C4.27391 21.2197 3.37891 20.3247 3.37891 19.2197V17.2197C3.37891 16.1147 4.27391 15.2197 5.37891 15.2197Z" stroke="#6D6E6F" stroke-width="1.5" stroke-linecap="round" stroke-linejoin="round"/>
</svg>
