<svg width="21" height="20" viewBox="0 0 21 20" fill="none" xmlns="http://www.w3.org/2000/svg">
<path d="M10.3335 19C15.3041 19 19.3335 14.9706 19.3335 10C19.3335 5.02944 15.3041 1 10.3335 1C5.36293 1 1.3335 5.02944 1.3335 10C1.3335 14.9706 5.36293 19 10.3335 19Z" stroke="#727272" stroke-width="1.5" stroke-linecap="round" stroke-linejoin="round"/>
<path d="M10.3335 15.8496C10.9548 15.8496 11.4585 15.3459 11.4585 14.7246C11.4585 14.1033 10.9548 13.5996 10.3335 13.5996C9.71218 13.5996 9.2085 14.1033 9.2085 14.7246C9.2085 15.3459 9.71218 15.8496 10.3335 15.8496Z" fill="#727272"/>
<path d="M7.85303 6.73151C8.23283 5.28431 9.41273 4.53551 10.7339 4.60391C12.0389 4.67141 13.253 5.38871 13.1972 7.05371C13.1171 9.42071 10.6016 9.09941 10.3199 11.3494H10.3298" stroke="#727272" stroke-width="1.5" stroke-linecap="round" stroke-linejoin="round"/>
</svg>
