<svg width="25" height="25" viewBox="0 0 25 25" fill="none" xmlns="http://www.w3.org/2000/svg">
<path d="M12.1291 16.7197H15.6291C16.1814 16.7197 16.6291 16.272 16.6291 15.7197V8.71973C16.6291 8.16744 16.1814 7.71973 15.6291 7.71973H11.3291C10.7768 7.71973 10.3291 8.16744 10.3291 8.71973V11.2197" stroke="#6D6E6F" stroke-width="1.5" stroke-linecap="round" stroke-linejoin="round"/>
<path fill-rule="evenodd" clip-rule="evenodd" d="M7.62891 15.7197V13.5496C7.62891 13.2458 7.767 12.9585 8.00421 12.7687L9.59803 11.4936C10.0546 11.1284 10.7032 11.1284 11.1598 11.4936L12.7536 12.7687C12.9908 12.9585 13.1289 13.2458 13.1289 13.5496V15.7197C13.1289 16.272 12.6812 16.7197 12.1289 16.7197H8.62891C8.07662 16.7197 7.62891 16.272 7.62891 15.7197Z" stroke="#6D6E6F" stroke-width="1.5" stroke-linecap="round" stroke-linejoin="round"/>
<circle cx="12.3789" cy="12.2197" r="9.5" stroke="#6D6E6F" stroke-width="1.5" stroke-linecap="round" stroke-linejoin="round"/>
</svg>
