<svg width="25" height="25" viewBox="0 0 25 25" fill="none" xmlns="http://www.w3.org/2000/svg">
<path d="M10.8789 12.2197L8.37891 9.71973L10.8789 7.21973" stroke="#6D6E6F" stroke-width="1.5" stroke-linecap="round" stroke-linejoin="round"/>
<path fill-rule="evenodd" clip-rule="evenodd" d="M14.5529 21.0707L12.8719 19.9507C12.5729 19.7517 12.1839 19.7517 11.8859 19.9507L10.2049 21.0707C9.90591 21.2697 9.51691 21.2697 9.21891 21.0707L7.53891 19.9497C7.23991 19.7507 6.85091 19.7507 6.55291 19.9497L5.76091 20.4777C5.16991 20.8717 4.37891 20.4477 4.37891 19.7387V4.99773C4.37891 4.01573 5.17491 3.21973 6.15691 3.21973H18.6009C19.5829 3.21973 20.3789 4.01573 20.3789 4.99773V19.7387C20.3789 20.4487 19.5879 20.8717 18.9969 20.4787L18.2049 19.9507C17.9059 19.7517 17.5169 19.7517 17.2189 19.9507L15.5379 21.0707C15.2399 21.2697 14.8509 21.2697 14.5529 21.0707V21.0707Z" stroke="#6D6E6F" stroke-width="1.5" stroke-linecap="round" stroke-linejoin="round"/>
<path d="M8.37891 9.71973H13.6289C15.1479 9.71973 16.3789 10.9507 16.3789 12.4697V12.4697C16.3789 13.9887 15.1479 15.2197 13.6289 15.2197H12.3789" stroke="#6D6E6F" stroke-width="1.5" stroke-linecap="round" stroke-linejoin="round"/>
</svg>
