<svg width="25" height="24" viewBox="0 0 25 24" fill="none" xmlns="http://www.w3.org/2000/svg">
<g opacity="0.5">
<path d="M12.3335 21C17.3041 21 21.3335 16.9706 21.3335 12C21.3335 7.02944 17.3041 3 12.3335 3C7.36293 3 3.3335 7.02944 3.3335 12C3.3335 16.9706 7.36293 21 12.3335 21Z" stroke="#727272" stroke-width="1.5" stroke-linecap="round" stroke-linejoin="round"/>
<path d="M12.3335 17.8496C12.9548 17.8496 13.4585 17.3459 13.4585 16.7246C13.4585 16.1033 12.9548 15.5996 12.3335 15.5996C11.7122 15.5996 11.2085 16.1033 11.2085 16.7246C11.2085 17.3459 11.7122 17.8496 12.3335 17.8496Z" fill="#727272"/>
<path d="M9.85303 8.73151C10.2328 7.28431 11.4127 6.53551 12.7339 6.60391C14.0389 6.67141 15.253 7.38871 15.1972 9.05371C15.1171 11.4207 12.6016 11.0994 12.3199 13.3494H12.3298" stroke="#727272" stroke-width="1.5" stroke-linecap="round" stroke-linejoin="round"/>
</g>
</svg>
