<svg width="19" height="20" viewBox="0 0 19 20" fill="none" xmlns="http://www.w3.org/2000/svg">
<path fill-rule="evenodd" clip-rule="evenodd" d="M16.881 1.9299L15.8905 1.3549C15.5822 1.17592 15.2019 1.17459 14.8924 1.35142L13.3731 2.21933L11.885 1.35574C11.5759 1.1763 11.1944 1.17554 10.8845 1.35374L9.37891 2.21974L7.87327 1.35384C7.56339 1.17564 7.18196 1.1764 6.8728 1.35584L5.38468 2.21934L3.86539 1.35144C3.55585 1.17462 3.1756 1.17594 2.86731 1.35492L1.87684 1.92992C1.5686 2.10886 1.37891 2.43833 1.37891 2.79474V17.2197C1.37891 18.3243 2.27434 19.2197 3.37891 19.2197H15.3789C16.4835 19.2197 17.3789 18.3243 17.3789 17.2197V2.79474C17.3789 2.43832 17.1892 2.10884 16.881 1.9299Z" stroke="#6D6E6F" stroke-width="1.5" stroke-linecap="round" stroke-linejoin="round"/>
<path d="M9.37891 14.7197V13.7197" stroke="#6D6E6F" stroke-width="1.5" stroke-linecap="round" stroke-linejoin="round"/>
<path d="M7.37891 9.21973V9.21973C7.37891 9.85933 7.83037 10.41 8.45755 10.5355L10.3003 10.904C10.9274 11.0294 11.3789 11.5801 11.3789 12.2197V12.2197" stroke="#6D6E6F" stroke-width="1.5" stroke-linecap="round" stroke-linejoin="round"/>
<path d="M11.3785 12.2197C11.3785 13.0481 10.4831 13.7197 9.37854 13.7197C8.61464 13.765 7.88968 13.3789 7.50098 12.7197" stroke="#6D6E6F" stroke-width="1.5" stroke-linecap="round" stroke-linejoin="round"/>
<path d="M11.2484 8.70066C10.8541 8.05368 10.1353 7.6767 9.37891 7.72019C8.27436 7.72019 7.37891 8.39182 7.37891 9.22019" stroke="#6D6E6F" stroke-width="1.5" stroke-linecap="round" stroke-linejoin="round"/>
<path d="M9.37891 6.71973V7.71973" stroke="#6D6E6F" stroke-width="1.5" stroke-linecap="round" stroke-linejoin="round"/>
</svg>
