<svg width="25" height="25" viewBox="0 0 25 25" fill="none" xmlns="http://www.w3.org/2000/svg">
<path fill-rule="evenodd" clip-rule="evenodd" d="M5.37583 21.2233H19.3817C20.4867 21.2233 21.3825 20.3275 21.3825 19.2225V5.21665C21.3825 4.11162 20.4867 3.21582 19.3817 3.21582H8.20501C7.67489 3.21582 7.16648 3.42642 6.79142 3.80106L3.96124 6.63124C3.58574 7.00663 3.375 7.51588 3.375 8.04683V19.2225C3.375 20.3275 4.2708 21.2233 5.37583 21.2233Z" stroke="#6D6E6F" stroke-width="1.5" stroke-linecap="round" stroke-linejoin="round"/>
<path d="M8.37708 3.21582V7.21749C8.37708 7.77 7.92918 8.2179 7.37667 8.2179H3.375" stroke="#6D6E6F" stroke-width="1.5" stroke-linecap="round" stroke-linejoin="round"/>
<rect x="7.87695" y="12.4697" width="3.00125" height="3.75156" stroke="#6D6E6F" stroke-width="1.5" stroke-linecap="round" stroke-linejoin="round"/>
<rect x="10.8779" y="8.21777" width="3.00125" height="8.00333" stroke="#6D6E6F" stroke-width="1.5" stroke-linecap="round" stroke-linejoin="round"/>
<rect x="13.8799" y="10.4688" width="3.00125" height="5.7524" stroke="#6D6E6F" stroke-width="1.5" stroke-linecap="round" stroke-linejoin="round"/>
</svg>
