<svg width="25" height="24" viewBox="0 0 25 24" fill="none" xmlns="http://www.w3.org/2000/svg">
<path d="M12.5 15.9H4.4C3.35 15.9 2.5 15.05 2.5 14V4.9C2.5 3.85 3.35 3 4.4 3H19.6C20.65 3 21.5 3.85 21.5 4.9V10" stroke="#323232" stroke-width="1.5" stroke-linecap="round" stroke-linejoin="round"/>
<path d="M13.6793 7.97139C14.6063 8.89839 14.6063 10.4024 13.6793 11.3304C12.7523 12.2574 11.2483 12.2574 10.3202 11.3304C9.39325 10.4034 9.39325 8.89939 10.3202 7.97139C11.2483 7.04339 12.7523 7.04339 13.6793 7.97139" stroke="#323232" stroke-width="1.5" stroke-linecap="round" stroke-linejoin="round"/>
<path d="M22.5 16.7996V13.9996C22.5 13.2256 20.932 12.5996 19 12.5996C17.068 12.5996 15.501 13.2266 15.5 13.9996V19.5996C15.501 20.3726 17.067 20.9996 19 20.9996C20.933 20.9996 22.499 20.3726 22.5 19.5996V13.9996" stroke="#323232" stroke-width="1.5" stroke-linecap="round" stroke-linejoin="round"/>
<path d="M15.501 14C15.501 14.773 17.068 15.4 19.001 15.4C20.934 15.4 22.5 14.773 22.5 14" stroke="#323232" stroke-width="1.5" stroke-linecap="round" stroke-linejoin="round"/>
<path d="M15.501 16.7998C15.501 17.5728 17.068 18.1998 19.001 18.1998C20.934 18.1998 22.501 17.5728 22.501 16.7998" stroke="#323232" stroke-width="1.5" stroke-linecap="round" stroke-linejoin="round"/>
<path d="M6.5 13H5.5" stroke="#323232" stroke-width="1.5" stroke-linecap="round" stroke-linejoin="round"/>
<path d="M18.5 6H17.5" stroke="#323232" stroke-width="1.5" stroke-linecap="round" stroke-linejoin="round"/>
</svg>
